<svg width="701" height="233" viewBox="0 0 701 233" fill="none" xmlns="http://www.w3.org/2000/svg">
<g clip-path="url(#clip0_331_7978)">
<path d="M38.1811 40.1328H0.15332V78.1553H38.1811V40.1328Z" fill="#F4F4F4"/>
<path d="M38.1821 154.066H0.154297V192.089H38.1821V154.066Z" fill="#F4F4F4"/>
<path d="M311.716 40.1328H273.688V78.1553H311.716V40.1328Z" fill="#F4F4F4"/>
<path d="M311.716 154.066H273.688V192.089H311.716V154.066Z" fill="#F4F4F4"/>
<path d="M0.154297 78.1523H311.716" stroke="#252525" stroke-opacity="0.24" stroke-width="0.5" stroke-miterlimit="10" stroke-dasharray="2 2"/>
<path d="M0.15332 40.1328H311.715" stroke="#252525" stroke-opacity="0.24" stroke-width="0.5" stroke-miterlimit="10" stroke-dasharray="2 2"/>
<path d="M0.154297 154.066H311.716" stroke="#252525" stroke-opacity="0.24" stroke-width="0.5" stroke-miterlimit="10" stroke-dasharray="2 2"/>
<path d="M38.1816 40.1328V192.092" stroke="#252525" stroke-opacity="0.24" stroke-width="0.5" stroke-miterlimit="10" stroke-dasharray="2 2"/>
<path d="M0.15332 40.1328V192.092" stroke="#252525" stroke-opacity="0.24" stroke-width="0.5" stroke-miterlimit="10" stroke-dasharray="2 2"/>
<path d="M273.688 40.1328V192.089" stroke="#252525" stroke-opacity="0.24" stroke-width="0.5" stroke-miterlimit="10" stroke-dasharray="2 2"/>
<path d="M0.154297 192.09H311.716" stroke="#252525" stroke-opacity="0.24" stroke-width="0.5" stroke-miterlimit="10" stroke-dasharray="2 2"/>
<path d="M311.716 40.1328V192.089" stroke="#252525" stroke-opacity="0.24" stroke-width="0.5" stroke-miterlimit="10" stroke-dasharray="2 2"/>
<path d="M132.932 111.259C130.425 111.259 128.214 110.692 126.303 109.554C124.389 108.392 122.891 106.749 121.806 104.631C120.72 102.486 120.176 99.9133 120.176 96.9172C120.176 93.921 120.707 91.4268 121.766 89.2795C122.825 87.1086 124.311 85.4423 126.224 84.278C128.138 83.0901 130.385 82.4961 132.969 82.4961C136.484 82.4961 139.212 83.3739 141.149 85.1322C143.089 86.8642 144.354 89.2927 144.95 92.4203L139.677 92.691C139.341 90.8828 138.618 89.4609 137.506 88.428C136.394 87.3951 134.883 86.8773 132.969 86.8773C131.418 86.8773 130.075 87.29 128.937 88.1179C127.799 88.9458 126.921 90.1074 126.3 91.6055C125.68 93.1036 125.37 94.875 125.37 96.9172C125.37 98.9593 125.68 100.768 126.3 102.266C126.947 103.74 127.838 104.875 128.976 105.677C130.114 106.479 131.431 106.878 132.93 106.878C134.972 106.878 136.549 106.324 137.659 105.212C138.797 104.074 139.52 102.523 139.83 100.56L145.103 100.831C144.74 102.975 144.043 104.836 143.008 106.413C141.975 107.964 140.605 109.165 138.899 110.019C137.22 110.847 135.23 111.259 132.93 111.259H132.932Z" fill="#252525"/>
<path d="M157.157 111.104C155.115 111.104 153.32 110.665 151.769 109.788C150.244 108.883 149.053 107.617 148.202 105.99C147.374 104.36 146.961 102.463 146.961 100.292C146.961 98.1209 147.374 96.197 148.202 94.5938C149.053 92.9669 150.244 91.7133 151.769 90.8328C153.32 89.9287 155.115 89.4767 157.157 89.4767C159.2 89.4767 160.982 89.9287 162.507 90.8328C164.031 91.7107 165.209 92.9643 166.034 94.5938C166.886 96.197 167.314 98.0946 167.314 100.292C167.314 102.489 166.888 104.363 166.034 105.99C165.206 107.617 164.031 108.883 162.507 109.788C160.982 110.665 159.197 111.104 157.157 111.104ZM157.157 107.073C158.761 107.073 159.988 106.479 160.84 105.291C161.718 104.103 162.157 102.434 162.157 100.289C162.157 98.1445 161.718 96.515 160.84 95.3271C159.988 94.1128 158.758 93.5057 157.157 93.5057C155.557 93.5057 154.313 94.1128 153.435 95.3271C152.557 96.515 152.116 98.1708 152.116 100.289C152.116 102.408 152.555 104.1 153.435 105.291C154.316 106.481 155.554 107.073 157.157 107.073Z" fill="#252525"/>
<path d="M170.371 110.639V89.9392H174.869L175.063 95.7529L174.482 95.5189C174.69 94.0708 175.116 92.9091 175.763 92.0313C176.409 91.1535 177.198 90.5069 178.128 90.0917C179.059 89.679 180.079 89.4714 181.191 89.4714C182.715 89.4714 183.995 89.8078 185.028 90.4806C186.088 91.1535 186.889 92.0839 187.431 93.2718C187.975 94.4335 188.246 95.7923 188.246 97.3429V110.639H183.283V98.933C183.283 97.7687 183.167 96.7884 182.933 95.9868C182.699 95.1852 182.313 94.578 181.771 94.1654C181.254 93.7265 180.557 93.5057 179.679 93.5057C178.36 93.5057 177.3 93.9709 176.499 94.9013C175.723 95.8317 175.337 97.1747 175.337 98.933V110.639H170.371Z" fill="#252525"/>
<path d="M199.738 110.639C197.669 110.639 196.145 110.161 195.164 109.204C194.207 108.247 193.729 106.749 193.729 104.707V85.0928H198.692V104.242C198.692 105.199 198.899 105.872 199.312 106.258C199.725 106.621 200.371 106.802 201.252 106.802H204.159V110.639H199.738ZM190.472 93.7764V89.9392H204.159V93.7764H190.472Z" fill="#252525"/>
<path d="M215.636 111.104C213.567 111.104 211.772 110.665 210.247 109.788C208.722 108.883 207.545 107.617 206.719 105.99C205.891 104.36 205.479 102.463 205.479 100.292C205.479 98.1209 205.891 96.2338 206.719 94.6332C207.547 93.0064 208.709 91.7396 210.208 90.8355C211.732 89.9313 213.504 89.4793 215.52 89.4793C217.536 89.4793 219.203 89.9182 220.677 90.7987C222.176 91.6765 223.327 92.9433 224.129 94.5964C224.93 96.2496 225.33 98.2418 225.33 100.565V101.69H210.636C210.739 103.498 211.23 104.868 212.108 105.798C213.012 106.702 214.203 107.154 215.675 107.154C216.787 107.154 217.704 106.91 218.427 106.418C219.176 105.9 219.694 105.191 219.978 104.287L225.056 104.597C224.489 106.613 223.364 108.203 221.684 109.364C220.031 110.529 218.014 111.11 215.636 111.11V111.104ZM220.212 98.3495C220.109 96.6701 219.631 95.4296 218.777 94.628C217.925 93.8001 216.837 93.3875 215.52 93.3875C214.203 93.3875 213.104 93.8132 212.224 94.6674C211.369 95.5189 210.841 96.749 210.633 98.3495H220.212Z" fill="#252525"/>
<path d="M228.434 110.639V89.9392H232.932L233.126 95.7529L232.545 95.5189C232.753 94.0708 233.179 92.9091 233.825 92.0313C234.472 91.1535 235.261 90.5069 236.191 90.0917C237.122 89.679 238.142 89.4714 239.253 89.4714C240.778 89.4714 242.058 89.8078 243.091 90.4806C244.151 91.1535 244.952 92.0839 245.494 93.2718C246.038 94.4335 246.309 95.7923 246.309 97.3429V110.639H241.346V98.933C241.346 97.7687 241.23 96.7884 240.996 95.9868C240.762 95.1852 240.376 94.578 239.832 94.1654C239.314 93.7265 238.617 93.5057 237.739 93.5057C236.422 93.5057 235.361 93.9709 234.561 94.9013C233.786 95.8317 233.4 97.1747 233.4 98.933V110.639H228.434Z" fill="#252525"/>
<path d="M257.801 110.639C255.732 110.639 254.207 110.161 253.227 109.204C252.27 108.247 251.792 106.749 251.792 104.707V85.0928H256.755V104.242C256.755 105.199 256.962 105.872 257.375 106.258C257.788 106.621 258.434 106.802 259.315 106.802H262.222V110.639H257.801ZM248.535 93.7764V89.9392H262.219V93.7764H248.535Z" fill="#252525"/>
<path d="M121.614 148.959V121.436H133.127C135.117 121.436 136.836 121.772 138.284 122.442C139.732 123.115 140.855 124.072 141.657 125.313C142.458 126.553 142.858 128.012 142.858 129.694C142.858 130.961 142.587 132.085 142.043 133.066C141.499 134.049 140.763 134.837 139.832 135.431C138.928 136.025 137.919 136.388 136.807 136.517L136.612 136.128C138.395 136.128 139.767 136.527 140.721 137.329C141.704 138.13 142.259 139.358 142.387 141.011L143.084 148.959H137.966L137.385 141.749C137.309 140.664 136.959 139.862 136.339 139.347C135.719 138.829 134.686 138.572 133.237 138.572H126.647V148.961H121.608L121.614 148.959ZM132.817 134.151C134.341 134.151 135.529 133.789 136.384 133.066C137.235 132.343 137.664 131.321 137.664 130.004C137.664 128.687 137.225 127.625 136.344 126.903C135.493 126.18 134.239 125.817 132.583 125.817H126.65V134.151H132.817Z" fill="#252525"/>
<path d="M155.53 149.424C153.462 149.424 151.666 148.985 150.142 148.104C148.617 147.2 147.439 145.934 146.614 144.307C145.786 142.68 145.373 140.78 145.373 138.609C145.373 136.438 145.786 134.551 146.614 132.95C147.442 131.321 148.604 130.056 150.102 129.152C151.627 128.248 153.398 127.796 155.415 127.796C157.431 127.796 159.097 128.235 160.572 129.113C162.07 129.991 163.222 131.258 164.023 132.911C164.825 134.564 165.225 136.553 165.225 138.879V140.004H150.531C150.633 141.812 151.125 143.182 152.003 144.112C152.907 145.016 154.098 145.468 155.57 145.468C156.682 145.468 157.599 145.224 158.322 144.732C159.071 144.215 159.589 143.505 159.873 142.601L164.951 142.911C164.383 144.927 163.258 146.517 161.579 147.679C159.925 148.84 157.909 149.424 155.53 149.424ZM160.104 136.672C160.002 134.992 159.523 133.752 158.669 132.95C157.817 132.122 156.732 131.71 155.412 131.71C154.092 131.71 152.996 132.135 152.116 132.99C151.264 133.844 150.733 135.071 150.525 136.672H160.104Z" fill="#252525"/>
<path d="M171.948 148.959L165.706 128.259H170.784L174.816 143.339L178.964 128.259H183.307L187.494 143.339L191.526 128.259H196.605L190.362 148.959H185.244L181.135 135.082L177.064 148.959H171.946H171.948Z" fill="#252525"/>
<path d="M204.304 149.424C202.133 149.424 200.387 148.932 199.07 147.949C197.751 146.943 197.094 145.547 197.094 143.763C197.094 141.978 197.648 140.582 198.76 139.576C199.872 138.569 201.565 137.844 203.838 137.405L210.702 136.049C210.702 134.577 210.365 133.478 209.692 132.753C209.019 132.004 208.026 131.628 206.706 131.628C205.518 131.628 204.574 131.912 203.875 132.48C203.202 133.024 202.737 133.81 202.48 134.845L197.44 134.611C197.853 132.414 198.863 130.735 200.466 129.573C202.069 128.385 204.149 127.788 206.709 127.788C209.656 127.788 211.879 128.537 213.378 130.035C214.902 131.51 215.664 133.628 215.664 136.393V143.912C215.664 144.454 215.754 144.83 215.935 145.037C216.143 145.245 216.44 145.347 216.826 145.347H217.486V148.953C217.331 149.006 217.073 149.043 216.711 149.069C216.374 149.095 216.025 149.108 215.664 149.108C214.813 149.108 214.048 148.98 213.378 148.722C212.705 148.438 212.19 147.96 211.827 147.287C211.464 146.591 211.283 145.647 211.283 144.456L211.708 144.767C211.501 145.671 211.049 146.485 210.352 147.208C209.679 147.905 208.828 148.449 207.795 148.838C206.761 149.227 205.597 149.419 204.306 149.419L204.304 149.424ZM205.31 145.818C206.422 145.818 207.379 145.597 208.181 145.158C208.983 144.719 209.603 144.112 210.042 143.337C210.481 142.562 210.702 141.644 210.702 140.585V139.421L205.353 140.506C204.241 140.74 203.439 141.087 202.947 141.552C202.482 141.991 202.251 142.572 202.251 143.297C202.251 144.099 202.508 144.719 203.026 145.158C203.57 145.597 204.333 145.818 205.313 145.818H205.31Z" fill="#252525"/>
<path d="M219.933 128.259H224.586L224.78 133.996L224.355 133.917C224.665 131.928 225.246 130.493 226.1 129.615C226.978 128.711 228.169 128.259 229.667 128.259H231.567V132.522H229.628C228.568 132.522 227.688 132.677 226.991 132.987C226.292 133.297 225.764 133.789 225.401 134.461C225.064 135.108 224.896 135.959 224.896 137.021V148.961H219.933V128.259Z" fill="#252525"/>
<path d="M240.836 149.424C239.077 149.424 237.553 148.985 236.262 148.104C234.995 147.227 234.015 145.973 233.315 144.343C232.616 142.717 232.269 140.803 232.269 138.606C232.269 136.409 232.619 134.498 233.315 132.869C234.012 131.239 235.008 129.988 236.302 129.108C237.595 128.23 239.106 127.791 240.838 127.791C242.287 127.791 243.551 128.088 244.637 128.682C245.749 129.276 246.587 130.117 247.158 131.202V121.433H252.12V148.956H247.392L247.276 145.894C246.708 147.006 245.854 147.871 244.718 148.491C243.58 149.111 242.289 149.421 240.841 149.421L240.836 149.424ZM242.347 145.392C243.38 145.392 244.248 145.135 244.944 144.617C245.667 144.099 246.211 143.337 246.574 142.33C246.96 141.297 247.155 140.057 247.155 138.609C247.155 137.161 246.96 135.894 246.574 134.887C246.211 133.878 245.67 133.116 244.944 132.601C244.245 132.083 243.38 131.825 242.347 131.825C240.849 131.825 239.645 132.432 238.741 133.647C237.863 134.835 237.421 136.49 237.421 138.609C237.421 140.727 237.86 142.33 238.741 143.571C239.645 144.785 240.846 145.392 242.347 145.392Z" fill="#252525"/>
<path d="M264.809 149.424C262.766 149.424 261.047 149.127 259.651 148.533C258.282 147.939 257.222 147.111 256.473 146.052C255.724 144.993 255.298 143.792 255.193 142.446L260.272 142.212C260.453 143.297 260.905 144.138 261.628 144.732C262.351 145.326 263.426 145.623 264.845 145.623C266.01 145.623 266.914 145.442 267.561 145.079C268.231 144.69 268.567 144.096 268.567 143.297C268.567 142.832 268.452 142.446 268.22 142.136C267.987 141.826 267.548 141.555 266.901 141.321C266.254 141.09 265.298 140.856 264.033 140.625C261.912 140.262 260.245 139.823 259.031 139.308C257.817 138.764 256.949 138.094 256.434 137.292C255.942 136.49 255.698 135.497 255.698 134.306C255.698 132.367 256.434 130.805 257.909 129.615C259.407 128.401 261.591 127.794 264.462 127.794C266.323 127.794 267.887 128.104 269.154 128.724C270.418 129.318 271.401 130.146 272.098 131.205C272.823 132.238 273.275 133.428 273.457 134.771L268.454 135.005C268.326 134.309 268.092 133.699 267.758 133.184C267.421 132.666 266.969 132.28 266.399 132.022C265.831 131.739 265.158 131.597 264.383 131.597C263.221 131.597 262.343 131.831 261.746 132.293C261.152 132.758 260.855 133.379 260.855 134.154C260.855 134.698 260.984 135.15 261.242 135.51C261.525 135.873 261.978 136.17 262.598 136.401C263.218 136.609 264.046 136.8 265.079 136.982C267.251 137.318 268.956 137.757 270.197 138.299C271.464 138.816 272.355 139.487 272.87 140.314C273.415 141.116 273.685 142.083 273.685 143.221C273.685 144.538 273.312 145.663 272.56 146.593C271.837 147.524 270.804 148.233 269.461 148.725C268.142 149.19 266.591 149.421 264.809 149.421V149.424Z" fill="#252525"/>
<path d="M70.9496 78.1094L75.271 87.8154L85.8406 88.9245L77.9417 96.0339L80.1523 106.426L70.9496 101.114L61.7469 106.426L63.9576 96.0339L56.0587 88.9245L66.6282 87.8154L70.9496 78.1094Z" fill="#252525"/>
<path d="M70.9496 154.065L73.1708 149.077L78.6041 148.506L74.5455 144.853L75.6811 139.513L70.9496 142.243L66.2208 139.513L67.359 144.853L63.3004 148.506L68.7311 149.077L70.9523 154.065H70.9496Z" fill="#252525"/>
<path d="M50.8015 97.1456L52.4601 104.946L60.0462 107.411L53.1383 111.398V119.375L47.2135 114.037L39.6274 116.502L42.871 109.217L38.1816 102.765L46.1147 103.598L50.8015 97.1456Z" fill="#252525"/>
<path d="M53.1383 131.959L59.326 135.528L52.5311 137.733L51.0486 144.719L46.8507 138.942L39.7483 139.689L43.9435 133.912L41.0389 127.386L47.8312 129.594L53.1383 124.816V131.959Z" fill="#252525"/>
<path d="M91.0951 97.1456L89.4365 104.946L81.8504 107.411L88.7583 111.398V119.375L94.6858 114.037L102.272 116.502L99.0256 109.217L103.715 102.765L95.7845 103.598L91.0951 97.1456Z" fill="#252525"/>
<path d="M88.7609 124.818V131.959L82.5759 135.528L89.3681 137.733L90.8533 144.719L95.0511 138.942L102.156 139.689L97.9584 133.912L100.866 127.386L94.0707 129.594L88.7636 124.816L88.7609 124.818Z" fill="#252525"/>
</g>
<path d="M349.875 97.0977H311.848V135.12H349.875V97.0977Z" fill="#F4F4F4"/>
<path d="M349.875 40.1328V192.089" stroke="#252525" stroke-miterlimit="10" stroke-dasharray="2 2"/>
<path d="M388.903 97.0977H350.875V135.12H388.903V97.0977Z" fill="#F4F4F4"/>
<g clip-path="url(#clip1_331_7978)">
<path d="M427.061 40.1328H389.033V78.1553H427.061V40.1328Z" fill="#F4F4F4"/>
<path d="M427.062 154.066H389.034V192.089H427.062V154.066Z" fill="#F4F4F4"/>
<path d="M700.596 40.1328H662.568V78.1553H700.596V40.1328Z" fill="#F4F4F4"/>
<path d="M700.596 154.066H662.568V192.089H700.596V154.066Z" fill="#F4F4F4"/>
<path d="M389.034 78.1523H700.596" stroke="#252525" stroke-opacity="0.24" stroke-width="0.5" stroke-miterlimit="10" stroke-dasharray="2 2"/>
<path d="M389.033 40.1328H700.595" stroke="#252525" stroke-opacity="0.24" stroke-width="0.5" stroke-miterlimit="10" stroke-dasharray="2 2"/>
<path d="M389.034 154.066H700.596" stroke="#252525" stroke-opacity="0.24" stroke-width="0.5" stroke-miterlimit="10" stroke-dasharray="2 2"/>
<path d="M427.062 40.1328V192.092" stroke="#252525" stroke-opacity="0.24" stroke-width="0.5" stroke-miterlimit="10" stroke-dasharray="2 2"/>
<path d="M389.033 40.1328V192.092" stroke="#252525" stroke-opacity="0.24" stroke-width="0.5" stroke-miterlimit="10" stroke-dasharray="2 2"/>
<path d="M662.568 40.1328V192.089" stroke="#252525" stroke-opacity="0.24" stroke-width="0.5" stroke-miterlimit="10" stroke-dasharray="2 2"/>
<path d="M389.034 192.09H700.596" stroke="#252525" stroke-opacity="0.24" stroke-width="0.5" stroke-miterlimit="10" stroke-dasharray="2 2"/>
<path d="M700.596 40.1328V192.089" stroke="#252525" stroke-opacity="0.24" stroke-width="0.5" stroke-miterlimit="10" stroke-dasharray="2 2"/>
<path d="M521.812 111.259C519.305 111.259 517.094 110.692 515.183 109.554C513.269 108.392 511.771 106.749 510.685 104.631C509.6 102.486 509.056 99.9133 509.056 96.9172C509.056 93.921 509.587 91.4268 510.646 89.2795C511.705 87.1086 513.19 85.4423 515.104 84.278C517.018 83.0901 519.265 82.4961 521.849 82.4961C525.363 82.4961 528.092 83.3739 530.029 85.1322C531.969 86.8642 533.233 89.2927 533.83 92.4203L528.557 92.691C528.221 90.8828 527.498 89.4609 526.386 88.428C525.274 87.3951 523.763 86.8773 521.849 86.8773C520.298 86.8773 518.955 87.29 517.817 88.1179C516.679 88.9458 515.801 90.1074 515.18 91.6055C514.56 93.1036 514.25 94.875 514.25 96.9172C514.25 98.9593 514.56 100.768 515.18 102.266C515.827 103.74 516.718 104.875 517.856 105.677C518.994 106.479 520.311 106.878 521.81 106.878C523.852 106.878 525.429 106.324 526.538 105.212C527.677 104.074 528.399 102.523 528.71 100.56L533.983 100.831C533.62 102.975 532.923 104.836 531.888 106.413C530.855 107.964 529.485 109.165 527.779 110.019C526.099 110.847 524.11 111.259 521.81 111.259H521.812Z" fill="#252525"/>
<path d="M546.037 111.104C543.995 111.104 542.2 110.665 540.649 109.788C539.124 108.883 537.933 107.617 537.082 105.99C536.254 104.36 535.841 102.463 535.841 100.292C535.841 98.1209 536.254 96.197 537.082 94.5938C537.933 92.9669 539.124 91.7133 540.649 90.8328C542.2 89.9287 543.995 89.4767 546.037 89.4767C548.08 89.4767 549.862 89.9287 551.386 90.8328C552.911 91.7107 554.089 92.9643 554.914 94.5938C555.766 96.197 556.194 98.0946 556.194 100.292C556.194 102.489 555.768 104.363 554.914 105.99C554.086 107.617 552.911 108.883 551.386 109.788C549.862 110.665 548.077 111.104 546.037 111.104ZM546.037 107.073C547.641 107.073 548.868 106.479 549.72 105.291C550.598 104.103 551.037 102.434 551.037 100.289C551.037 98.1445 550.598 96.515 549.72 95.3271C548.868 94.1128 547.638 93.5057 546.037 93.5057C544.436 93.5057 543.193 94.1128 542.315 95.3271C541.437 96.515 540.996 98.1708 540.996 100.289C540.996 102.408 541.435 104.1 542.315 105.291C543.196 106.481 544.434 107.073 546.037 107.073Z" fill="#252525"/>
<path d="M559.251 110.639V89.9392H563.749L563.943 95.7529L563.362 95.5189C563.57 94.0708 563.996 92.9091 564.642 92.0313C565.289 91.1535 566.078 90.5069 567.008 90.0917C567.939 89.679 568.959 89.4714 570.07 89.4714C571.595 89.4714 572.875 89.8078 573.908 90.4806C574.968 91.1535 575.769 92.0839 576.311 93.2718C576.855 94.4335 577.126 95.7923 577.126 97.3429V110.639H572.163V98.933C572.163 97.7687 572.047 96.7884 571.813 95.9868C571.579 95.1852 571.193 94.578 570.651 94.1654C570.134 93.7265 569.437 93.5057 568.559 93.5057C567.239 93.5057 566.18 93.9709 565.378 94.9013C564.603 95.8317 564.217 97.1747 564.217 98.933V110.639H559.251Z" fill="#252525"/>
<path d="M588.618 110.639C586.549 110.639 585.024 110.161 584.044 109.204C583.087 108.247 582.609 106.749 582.609 104.707V85.0928H587.572V104.242C587.572 105.199 587.779 105.872 588.192 106.258C588.605 106.621 589.251 106.802 590.132 106.802H593.039V110.639H588.618ZM579.352 93.7764V89.9392H593.039V93.7764H579.352Z" fill="#252525"/>
<path d="M604.515 111.104C602.447 111.104 600.651 110.665 599.127 109.788C597.602 108.883 596.425 107.617 595.599 105.99C594.771 104.36 594.359 102.463 594.359 100.292C594.359 98.1209 594.771 96.2338 595.599 94.6332C596.427 93.0064 597.589 91.7396 599.087 90.8355C600.612 89.9313 602.384 89.4793 604.4 89.4793C606.416 89.4793 608.082 89.9182 609.557 90.7987C611.055 91.6765 612.207 92.9433 613.008 94.5964C613.81 96.2496 614.21 98.2418 614.21 100.565V101.69H599.516C599.618 103.498 600.11 104.868 600.988 105.798C601.892 106.702 603.083 107.154 604.555 107.154C605.667 107.154 606.584 106.91 607.307 106.418C608.056 105.9 608.574 105.191 608.858 104.287L613.936 104.597C613.369 106.613 612.244 108.203 610.564 109.364C608.91 110.529 606.894 111.11 604.515 111.11V111.104ZM609.092 98.3495C608.989 96.6701 608.511 95.4296 607.657 94.628C606.805 93.8001 605.717 93.3875 604.4 93.3875C603.083 93.3875 601.984 93.8132 601.104 94.6674C600.249 95.5189 599.721 96.749 599.513 98.3495H609.092Z" fill="#252525"/>
<path d="M617.314 110.639V89.9392H621.812L622.006 95.7529L621.425 95.5189C621.633 94.0708 622.059 92.9091 622.705 92.0313C623.352 91.1535 624.141 90.5069 625.071 90.0917C626.002 89.679 627.021 89.4714 628.133 89.4714C629.658 89.4714 630.938 89.8078 631.971 90.4806C633.03 91.1535 633.832 92.0839 634.374 93.2718C634.918 94.4335 635.188 95.7923 635.188 97.3429V110.639H630.226V98.933C630.226 97.7687 630.11 96.7884 629.876 95.9868C629.642 95.1852 629.256 94.578 628.712 94.1654C628.194 93.7265 627.497 93.5057 626.619 93.5057C625.302 93.5057 624.24 93.9709 623.441 94.9013C622.666 95.8317 622.279 97.1747 622.279 98.933V110.639H617.314Z" fill="#252525"/>
<path d="M646.681 110.639C644.612 110.639 643.087 110.161 642.107 109.204C641.15 108.247 640.672 106.749 640.672 104.707V85.0928H645.634V104.242C645.634 105.199 645.842 105.872 646.255 106.258C646.667 106.621 647.314 106.802 648.195 106.802H651.102V110.639H646.681ZM637.415 93.7764V89.9392H651.099V93.7764H637.415Z" fill="#252525"/>
<path d="M510.494 148.959V121.436H522.007C523.997 121.436 525.716 121.772 527.164 122.442C528.612 123.115 529.735 124.072 530.536 125.313C531.338 126.553 531.738 128.012 531.738 129.694C531.738 130.961 531.467 132.085 530.923 133.066C530.379 134.049 529.643 134.837 528.712 135.431C527.808 136.025 526.799 136.388 525.687 136.517L525.492 136.128C527.274 136.128 528.647 136.527 529.601 137.329C530.584 138.13 531.138 139.358 531.267 141.011L531.964 148.959H526.846L526.265 141.749C526.189 140.664 525.839 139.862 525.219 139.347C524.599 138.829 523.565 138.572 522.117 138.572H515.527V148.961H510.488L510.494 148.959ZM521.697 134.151C523.221 134.151 524.409 133.789 525.264 133.066C526.115 132.343 526.544 131.321 526.544 130.004C526.544 128.687 526.105 127.625 525.224 126.903C524.372 126.18 523.119 125.817 521.463 125.817H515.53V134.151H521.697Z" fill="#252525"/>
<path d="M544.41 149.424C542.341 149.424 540.546 148.985 539.022 148.104C537.497 147.2 536.319 145.934 535.494 144.307C534.666 142.68 534.253 140.78 534.253 138.609C534.253 136.438 534.666 134.551 535.494 132.95C536.322 131.321 537.484 130.056 538.982 129.152C540.507 128.248 542.278 127.796 544.295 127.796C546.311 127.796 547.977 128.235 549.452 129.113C550.95 129.991 552.101 131.258 552.903 132.911C553.705 134.564 554.104 136.553 554.104 138.879V140.004H539.411C539.513 141.812 540.005 143.182 540.883 144.112C541.787 145.016 542.978 145.468 544.45 145.468C545.561 145.468 546.479 145.224 547.202 144.732C547.951 144.215 548.469 143.505 548.753 142.601L553.831 142.911C553.263 144.927 552.138 146.517 550.459 147.679C548.805 148.84 546.789 149.424 544.41 149.424ZM548.984 136.672C548.881 134.992 548.403 133.752 547.549 132.95C546.697 132.122 545.611 131.71 544.292 131.71C542.972 131.71 541.876 132.135 540.996 132.99C540.144 133.844 539.613 135.071 539.405 136.672H548.984Z" fill="#252525"/>
<path d="M560.828 148.959L554.585 128.259H559.664L563.696 143.339L567.844 128.259H572.186L576.374 143.339L580.406 128.259H585.484L579.242 148.959H574.124L570.015 135.082L565.944 148.959H560.826H560.828Z" fill="#252525"/>
<path d="M593.184 149.424C591.012 149.424 589.267 148.932 587.95 147.949C586.631 146.943 585.973 145.547 585.973 143.763C585.973 141.978 586.528 140.582 587.64 139.576C588.752 138.569 590.445 137.844 592.718 137.405L599.582 136.049C599.582 134.577 599.245 133.478 598.572 132.753C597.899 132.004 596.906 131.628 595.586 131.628C594.398 131.628 593.454 131.912 592.755 132.48C592.082 133.024 591.617 133.81 591.359 134.845L586.32 134.611C586.733 132.414 587.742 130.735 589.346 129.573C590.949 128.385 593.029 127.788 595.589 127.788C598.535 127.788 600.759 128.537 602.258 130.035C603.782 131.51 604.544 133.628 604.544 136.393V143.912C604.544 144.454 604.634 144.83 604.815 145.037C605.023 145.245 605.32 145.347 605.706 145.347H606.366V148.953C606.211 149.006 605.953 149.043 605.591 149.069C605.254 149.095 604.904 149.108 604.544 149.108C603.693 149.108 602.928 148.98 602.258 148.722C601.585 148.438 601.069 147.96 600.707 147.287C600.344 146.591 600.163 145.647 600.163 144.456L600.588 144.767C600.381 145.671 599.929 146.485 599.232 147.208C598.559 147.905 597.707 148.449 596.674 148.838C595.641 149.227 594.477 149.419 593.186 149.419L593.184 149.424ZM594.19 145.818C595.302 145.818 596.259 145.597 597.061 145.158C597.863 144.719 598.483 144.112 598.922 143.337C599.361 142.562 599.582 141.644 599.582 140.585V139.421L594.232 140.506C593.121 140.74 592.319 141.087 591.827 141.552C591.362 141.991 591.131 142.572 591.131 143.297C591.131 144.099 591.388 144.719 591.906 145.158C592.45 145.597 593.213 145.818 594.193 145.818H594.19Z" fill="#252525"/>
<path d="M608.813 128.259H613.466L613.66 133.996L613.234 133.917C613.545 131.928 614.126 130.493 614.98 129.615C615.858 128.711 617.049 128.259 618.547 128.259H620.447V132.522H618.507C617.448 132.522 616.568 132.677 615.871 132.987C615.172 133.297 614.643 133.789 614.281 134.461C613.944 135.108 613.776 135.959 613.776 137.021V148.961H608.813V128.259Z" fill="#252525"/>
<path d="M629.716 149.424C627.957 149.424 626.433 148.985 625.142 148.104C623.875 147.227 622.895 145.973 622.195 144.343C621.496 142.717 621.149 140.803 621.149 138.606C621.149 136.409 621.499 134.498 622.195 132.869C622.892 131.239 623.888 129.988 625.181 129.108C626.475 128.23 627.986 127.791 629.718 127.791C631.167 127.791 632.431 128.088 633.517 128.682C634.629 129.276 635.467 130.117 636.037 131.202V121.433H641V148.956H636.271L636.156 145.894C635.588 147.006 634.734 147.871 633.598 148.491C632.46 149.111 631.169 149.421 629.721 149.421L629.716 149.424ZM631.227 145.392C632.26 145.392 633.128 145.135 633.824 144.617C634.547 144.099 635.091 143.337 635.454 142.33C635.84 141.297 636.035 140.057 636.035 138.609C636.035 137.161 635.84 135.894 635.454 134.887C635.091 133.878 634.55 133.116 633.824 132.601C633.125 132.083 632.26 131.825 631.227 131.825C629.729 131.825 628.525 132.432 627.621 133.647C626.743 134.835 626.301 136.49 626.301 138.609C626.301 140.727 626.74 142.33 627.621 143.571C628.525 144.785 629.726 145.392 631.227 145.392Z" fill="#252525"/>
<path d="M653.688 149.424C651.646 149.424 649.927 149.127 648.531 148.533C647.162 147.939 646.102 147.111 645.353 146.052C644.604 144.993 644.178 143.792 644.073 142.446L649.152 142.212C649.333 143.297 649.785 144.138 650.508 144.732C651.231 145.326 652.306 145.623 653.725 145.623C654.89 145.623 655.794 145.442 656.441 145.079C657.111 144.69 657.447 144.096 657.447 143.297C657.447 142.832 657.332 142.446 657.1 142.136C656.866 141.826 656.427 141.555 655.781 141.321C655.134 141.09 654.177 140.856 652.913 140.625C650.792 140.262 649.125 139.823 647.911 139.308C646.696 138.764 645.829 138.094 645.314 137.292C644.822 136.49 644.578 135.497 644.578 134.306C644.578 132.367 645.314 130.805 646.788 129.615C648.287 128.401 650.471 127.794 653.342 127.794C655.203 127.794 656.767 128.104 658.034 128.724C659.298 129.318 660.281 130.146 660.978 131.205C661.703 132.238 662.155 133.428 662.337 134.771L657.334 135.005C657.206 134.309 656.972 133.699 656.638 133.184C656.301 132.666 655.849 132.28 655.279 132.022C654.711 131.739 654.038 131.597 653.263 131.597C652.101 131.597 651.223 131.831 650.626 132.293C650.032 132.758 649.735 133.379 649.735 134.154C649.735 134.698 649.864 135.15 650.121 135.51C650.405 135.873 650.857 136.17 651.478 136.401C652.098 136.609 652.926 136.8 653.959 136.982C656.13 137.318 657.836 137.757 659.077 138.299C660.344 138.816 661.235 139.487 661.75 140.314C662.294 141.116 662.565 142.083 662.565 143.221C662.565 144.538 662.192 145.663 661.44 146.593C660.717 147.524 659.684 148.233 658.341 148.725C657.022 149.19 655.471 149.421 653.688 149.421V149.424Z" fill="#252525"/>
<path d="M459.83 78.1094L464.151 87.8154L474.72 88.9245L466.822 96.0339L469.032 106.426L459.83 101.114L450.627 106.426L452.837 96.0339L444.939 88.9245L455.508 87.8154L459.83 78.1094Z" fill="#252525"/>
<path d="M459.83 154.065L462.051 149.077L467.484 148.506L463.425 144.853L464.561 139.513L459.83 142.243L455.101 139.513L456.239 144.853L452.18 148.506L457.611 149.077L459.832 154.065H459.83Z" fill="#252525"/>
<path d="M439.681 97.1456L441.34 104.946L448.926 107.411L442.018 111.398V119.375L436.093 114.037L428.507 116.502L431.751 109.217L427.062 102.765L434.995 103.598L439.681 97.1456Z" fill="#252525"/>
<path d="M442.018 131.959L448.206 135.528L441.411 137.733L439.928 144.719L435.731 138.942L428.628 139.689L432.823 133.912L429.919 127.386L436.711 129.594L442.018 124.816V131.959Z" fill="#252525"/>
<path d="M479.975 97.1456L478.316 104.946L470.73 107.411L477.638 111.398V119.375L483.566 114.037L491.152 116.502L487.905 109.217L492.595 102.765L484.664 103.598L479.975 97.1456Z" fill="#252525"/>
<path d="M477.641 124.818V131.959L471.456 135.528L478.248 137.733L479.733 144.719L483.931 138.942L491.036 139.689L486.838 133.912L489.745 127.386L482.951 129.594L477.643 124.816L477.641 124.818Z" fill="#252525"/>
</g>
<path d="M2.5 199.859L0 198.666V201.553L2.5 200.359V199.859ZM35.5 200.359L38 201.553V198.666L35.5 199.859V200.359ZM2.25 200.109V200.359H35.75V200.109V199.859H2.25V200.109Z" fill="#FF8003"/>
<path d="M14.7663 227.109L18.0703 222.125L14.7943 217.169H16.5723L19.0223 220.949L21.4303 217.169H23.1943L19.9183 222.097L23.2363 227.109H21.4583L18.9943 223.273L16.5303 227.109H14.7663Z" fill="#FF8003"/>
<path d="M314.375 199.859L311.875 198.666V201.553L314.375 200.359V199.859ZM347.375 200.359L349.875 201.553V198.666L347.375 199.859V200.359ZM314.125 200.109V200.359H347.625V200.109V199.859H314.125V200.109Z" fill="#FF8003"/>
<path d="M326.641 227.109L329.945 222.125L326.669 217.169H328.447L330.897 220.949L333.305 217.169H335.069L331.793 222.097L335.111 227.109H333.333L330.869 223.273L328.405 227.109H326.641Z" fill="#FF8003"/>
<path d="M364.641 15L367.945 10.016L364.669 5.06H366.447L368.897 8.84L371.305 5.06H373.069L369.793 9.988L373.111 15H371.333L368.869 11.164L366.405 15H364.641Z" fill="#FF8003"/>
<path d="M352.375 31.75L349.875 30.5566V33.4434L352.375 32.25V31.75ZM385.375 32.25L387.875 33.4434V30.5566L385.375 31.75V32.25ZM352.125 32V32.25H385.625V32V31.75H352.125V32Z" fill="#FF8003"/>
<defs>
<clipPath id="clip0_331_7978">
<rect width="311.825" height="152.221" fill="white" transform="translate(0.0224609 40)"/>
</clipPath>
<clipPath id="clip1_331_7978">
<rect width="311.825" height="152.221" fill="white" transform="translate(388.902 40)"/>
</clipPath>
</defs>
</svg>
